:SAMPLES-PER-SECOND 30
:FRAME-RANGE 1-3358
:FULLY-SPECIFIED
:DEGREES
1994
root  10.846 35.6869 61.6621 -172.627 49.1613 177.842
RightUpLeg  -32.7506 -0.70287 -11.237
RightLeg  47.5745 1.96109 1.97366
RightFoot  -22.2376 0.973238 11.7546
RightToes  -1.11029e-010 1.2921e-014 -6.02303e-014
Spine  3.497 -0.630573 4.52056
Spine1  1.64373 0.317617 -4.29699
HEad  -1.79135 17.4537 -14.4334
LeftShoulder1  0.735561 -1.25217 -8.95225
LeftArm  -17.2731 -7.0643 -17.3305
LeftForeArm  45.6291 -31.3428 -4.36278
LeftHand  0.0403531 6.87582 5.5145
RightShoulder  1.52323 2.527 19.7156
RightArm  -31.4952 5.44796 35.6615
RightForeArm  47.0023 5.68625 2.50518
RightHand  -0.0936615 -4.87724 -18.7703
LeftUpLeg  -4.80441 -16.8629 18.3712
LeftLeg  38.1093 -3.55514 -2.60431
LeftFoot  -14.7441 -0.214444 -10.1657
LeftToes  -1.90334e-010 -8.83595e-011 4.99953e-011
1995
root  12.6348 36.8092 61.2099 -173.796 43.3302 177.091
RightUpLeg  -24.6048 -2.63566 -9.72437
RightLeg  41.649 -0.768614 -1.01706
RightFoot  -21.6289 0.92889 11.9161
RightToes  -1.11029e-010 1.2921e-014 -6.02303e-014
Spine  2.28917 -0.462791 4.52985
Spine1  1.06834 0.114621 -3.3672
HEad  2.83474 17.805 -12.0273
LeftShoulder1  0.759924 -1.48045 -8.66153
LeftArm  -14.081 -11.0517 -20.7063
LeftForeArm  45.2742 -30.8963 -4.27933
LeftHand  0.0322178 6.86747 4.96148
RightShoulder  1.38698 2.03517 19.5377
RightArm  -32.0097 2.74969 33.3912
RightForeArm  45.4123 4.37765 2.01032
RightHand  -0.0502452 -5.14555 -18.4349
LeftUpLeg  -7.31184 -12.052 16.9
LeftLeg  41.8278 1.28376 1.63536
LeftFoot  -11.7999 0.0417137 -7.21556
LeftToes  -1.90334e-010 -8.83595e-011 4.99953e-011
1996
root  14.3407 38.2916 60.6124 -175.09 36.7613 175.471
RightUpLeg  -17.4001 -3.97665 -9.47525
RightLeg  35.8757 -3.75275 -3.16642
RightFoot  -16.4948 0.55239 14.6995
RightToes  -1.11029e-010 1.2921e-014 -6.02303e-014
Spine  -0.00979363 -1.04308 2.89156
Spine1  1.5034 -0.820719 -2.09642
HEad  6.56732 17.4067 -8.69325
LeftShoulder1  0.747239 -1.55568 -8.09468
LeftArm  -11.0898 -15.6645 -24.6274
LeftForeArm  43.6388 -28.7261 -3.88013
LeftHand  0.0201534 6.63584 4.69254
RightShoulder  1.32287 1.71047 19.9584
RightArm  -33.42 0.141799 32.1192
RightForeArm  45.0957 3.2085 1.07134
RightHand  -0.0679802 -5.03023 -18.256
LeftUpLeg  -8.90492 -6.81994 13.3319
LeftLeg  41.2903 3.36987 3.5651
LeftFoot  -11.7021 0.0451646 -7.8831
LeftToes  -1.90334e-010 -8.83595e-011 4.99953e-011
1997
root  15.8972 39.7263 59.981 -175.747 30.3376 174.727
RightUpLeg  -13.6542 -6.06172 -9.21108
RightLeg  34.7627 -4.45541 -3.5684
RightFoot  -7.84193 -0.618085 18.3285
RightToes  -1.11029e-010 1.2921e-014 -6.02303e-014
Spine  -2.33857 -1.92134 1.81118
Spine1  2.98963 -1.84186 -1.73142
HEad  7.90637 15.5973 -6.14351
LeftShoulder1  0.865977 -2.46346 -7.69317
LeftArm  -7.93574 -20.9593 -27.9157
LeftForeArm  39.8687 -24.6353 -3.20305
LeftHand  0.0238747 6.74693 4.67328
RightShoulder  1.24267 1.34926 20.2892
RightArm  -35.215 -2.41489 32.2268
RightForeArm  44.0581 3.03274 0.160719
RightHand  -0.100808 -4.80362 -17.6852
LeftUpLeg  -9.28695 -1.57984 9.3784
LeftLeg  37.8139 3.1828 3.02895
LeftFoot  -9.69516 0.205907 -10.2776
LeftToes  -1.90334e-010 -8.83595e-011 4.99953e-011
1998
root  17.3184 40.905 59.3735 -175.967 24.7606 174.466
RightUpLeg  -14.6243 -7.24259 -9.22947
RightLeg  39.5819 -2.99573 -2.92719
RightFoot  3.49623 -2.19613 16.938
RightToes  -1.11029e-010 1.2921e-014 -6.02303e-014
Spine  -3.67198 -2.78272 0.57195
Spine1  4.12884 -2.89114 -0.722653
HEad  7.84843 13.2553 -4.8988
LeftShoulder1  1.06414 -4.03796 -7.11296
LeftArm  -7.96738 -26.0423 -30.2375
LeftForeArm  41.3827 -19.3699 -4.35624
LeftHand  0.0222751 6.8491 4.29639
RightShoulder  1.18486 1.11904 20.3649
RightArm  -36.0594 -4.54966 32.82
RightForeArm  42.3126 3.21551 -0.207847
RightHand  -0.136474 -4.51426 -16.5373
LeftUpLeg  -8.46241 4.06526 5.72062
LeftLeg  32.1003 1.22288 1.18681
LeftFoot  -5.03878 0.982241 -17.1848
LeftToes  -1.90334e-010 -8.83595e-011 4.99953e-011
1999
root  18.7465 41.5177 58.8069 -176.038 20.1414 174.011
RightUpLeg  -17.9543 -7.35687 -9.77302
RightLeg  46.878 -0.357098 -0.733075
RightFoot  9.71066 -1.94641 10.8082
RightToes  -1.11029e-010 1.2921e-014 -6.02303e-014
Spine  -4.15517 -3.71612 -1.96899
Spine1  5.03429 -4.14371 0.822458
HEad  6.4167 11.452 -4.77894
LeftShoulder1  1.23933 -5.8128 -6.10318
LeftArm  -12.1853 -30.1319 -30.8619
LeftForeArm  47.972 -14.0025 -6.75671
LeftHand  0.0280715 7.27117 3.85132
RightShoulder  1.17401 1.021 20.7427
RightArm  -36.4142 -5.71513 33.3511
RightForeArm  42.2182 3.65968 -0.27217
RightHand  -0.176102 -4.11759 -14.9982
LeftUpLeg  -7.01882 9.7555 2.68275
LeftLeg  26.276 -3.99258 -1.79908
LeftFoot  -0.973461 2.52412 -27.2829
LeftToes  -1.90334e-010 -8.83595e-011 4.99953e-011
